# xmcd
# 
# Track frame offsets:
#     150
#     11736
#     22501
#     31795
#     44572
#     58723
#     70582
#     84719
#     102400
#     113528
# 
# Disc length: 1745
# 
# Revision: 0
# Processed by: cddbd v1.5.2PL0 Copyright (c) Steve Scherf et al.
# Submitted via: fre:ac v1.0.27
# 
DISCID=7106cf0a
DTITLE=Waylon Jennings - The Taker/Tulsa
DYEAR=1971
DGENRE=Country
TTITLE0=The Taker
TTITLE1=You'll Look For Me
TTITLE2=Mississippi Woman
TTITLE3=Lovin' Her Was Easier (Than Anything I'll Ever Do Again)
TTITLE4=Six White Horses
TTITLE5=(Don't Let The Sun Set On You) Tulsa
TTITLE6=Casey's Last Ride
TTITLE7=(I'd Be) A Legend In My Time
TTITLE8=Sunday Morning Comin' Down
TTITLE9=Grey Eyes You Know
EXTD=
EXTT0=
EXTT1=
EXTT2=
EXTT3=
EXTT4=
EXTT5=
EXTT6=
EXTT7=
EXTT8=
EXTT9=
PLAYORDER=
